<?xml version="1.0" encoding="utf-8"?>
<!-- Generator: Adobe Illustrator 25.2.0, SVG Export Plug-In . SVG Version: 6.00 Build 0)  -->
<svg version="1.1" id="Ebene_1" xmlns="http://www.w3.org/2000/svg" xmlns:xlink="http://www.w3.org/1999/xlink" x="0px" y="0px"
	 viewBox="0 0 283.46 56.03" style="enable-background:new 0 0 283.46 56.03;" xml:space="preserve">
<style type="text/css">
	.st0{fill:#585857;}
	.st1{fill:url(#SVGID_1_);}
	.st2{fill:url(#SVGID_2_);}
	.st3{fill:#37ACA1;}
	.st4{fill:#FFFFFF;}
	.st5{fill:url(#SVGID_3_);}
	.st6{fill:url(#SVGID_4_);}
	.st7{fill:url(#SVGID_5_);}
	.st8{fill:url(#SVGID_6_);}
</style>
<g>
	<g>
		<path class="st4" d="M74.64,12.43c0-0.51,0.41-0.93,0.92-0.92c4.64,0.08,12.74-0.49,16.67,0.82c7.11,1.85,11.59,8,11.37,15.75
			c0.45,10.05-8.45,16.83-17.63,16.59c0,0-7.73,0-10.41,0c-0.5,0-0.91-0.41-0.91-0.92V12.43z M85.06,39.5
			c4.44,0.01,9.24-1.51,11.32-5.86c2.14-4.47,1.39-12.07-2.91-14.9c-3.62-2.68-8.91-2.15-13.15-2.2V39.5H85.06z"/>
		<path class="st4" d="M127.6,35.19h-15.52c0.29,5.66,8.18,7.28,11.42,3.32c0.3-0.37,0.86-0.38,1.23-0.08l2.2,1.83
			c0.38,0.31,0.47,0.88,0.16,1.26c-2.98,3.73-8.94,4.72-13.43,2.97c-6.25-2.13-8.43-10.05-6.11-15.89
			c2.08-5.87,9.17-8.58,14.75-6.33c3.83,1.55,5.68,5.25,6.13,9.16c0.11,0.93,0.11,2.07,0.1,2.85
			C128.51,34.79,128.1,35.19,127.6,35.19z M123.17,31.16c0.27-7.52-10.72-6.91-11.09,0H123.17z"/>
		<path class="st4" d="M162.17,22.16c0.5,0,0.91,0.41,0.91,0.92v2.22h0.14c2.3-3.79,7.88-4.73,11.73-2.88
			c4.12,1.89,6.31,6.36,6.27,10.9c0.04,4.55-2.06,9.07-6.2,11.04c-3.69,1.85-9.37,1.07-11.61-2.69h-0.09v13.33
			c0,0.51-0.41,0.92-0.91,0.92h-3.59c-0.5,0-0.91-0.41-0.91-0.92v-31.9c0-0.51,0.41-0.92,0.91-0.92H162.17z M175.71,33.32
			c-0.07-9.77-12.4-9.4-12.58,0.09C163.37,42.96,175.7,43.04,175.71,33.32z"/>
		<path class="st4" d="M215.88,18.67c-0.36,0.3-0.91,0.29-1.23-0.06c-2.73-3.05-7.78-3.45-11.26-1.84c-4.29,1.93-6.6,6.49-6.54,11.2
			c-0.05,4.74,2,9.43,6.36,11.34c3.76,1.72,9,0.98,11.71-2.27c0.3-0.36,0.81-0.46,1.19-0.18l3.09,2.26
			c0.42,0.31,0.52,0.93,0.18,1.33c-4.38,5.22-12.48,6.28-18.64,3.76c-6.52-2.6-10.26-9.16-10.17-16.24
			c-0.11-7.19,3.84-13.66,10.46-16.12c5.65-2.17,13.49-1.61,17.83,3.12c0.35,0.38,0.28,1-0.12,1.33L215.88,18.67z"/>
		<path class="st4" d="M236.92,41.8h-0.14c-1.75,3.13-6.06,4-9.45,3.07c-4.68-0.8-7.18-7.01-4.01-10.66
			c3.29-3.47,8.98-3.5,13.51-3.61c0.41-5.69-6.93-5.59-10.23-2.76c-0.38,0.33-0.95,0.27-1.27-0.12l-1.61-1.97
			c-0.31-0.38-0.29-0.96,0.09-1.28c5.23-4.4,15.82-4.42,17.73,3.13c0.73,2.07,0.38,12.37,0.41,16.14c0,0.51-0.41,0.92-0.91,0.92
			h-3.21c-0.5,0-0.91-0.41-0.91-0.92V41.8z M236.82,34.4c-2.82,0.04-6.39-0.18-8.66,1.76c-1.21,1.02-1.06,3.44,0.41,4.19
			c2.04,1.15,5.45,0.63,6.81-0.94C236.53,38.28,236.93,36.28,236.82,34.4z"/>
		<path class="st4" d="M248.14,22.16h3.36c0.5,0,0.91,0.41,0.91,0.92v2.83h0.09c1.2-2.75,3.89-4.69,6.86-4.39
			c0.44,0.05,0.77,0.46,0.77,0.91v3.24c0,0.55-0.48,0.98-1.02,0.9c-3.58-0.48-6.53,2.46-6.47,6.04c0,0,0,8.31,0,11.12
			c0,0.51-0.41,0.92-0.91,0.92h-3.59c-0.5,0-0.91-0.41-0.91-0.92V23.09C247.23,22.58,247.64,22.16,248.14,22.16z"/>
		<path class="st4" d="M282.54,35.19h-15.52c0.29,5.66,8.18,7.28,11.42,3.32c0.3-0.37,0.86-0.38,1.23-0.08l2.2,1.83
			c0.38,0.31,0.47,0.88,0.16,1.26c-2.98,3.73-8.94,4.72-13.43,2.97c-6.25-2.13-8.43-10.05-6.11-15.89
			c2.08-5.87,9.17-8.58,14.75-6.33c3.83,1.55,5.68,5.25,6.13,9.16c0.11,0.93,0.11,2.07,0.1,2.85
			C283.45,34.79,283.04,35.19,282.54,35.19z M278.11,31.16c0.27-7.52-10.72-6.91-11.09,0H278.11z"/>
		<path class="st4" d="M152.62,35.15H137.1c0.29,5.66,8.18,7.28,11.42,3.32c0.3-0.37,0.86-0.38,1.23-0.08l2.2,1.83
			c0.38,0.31,0.47,0.88,0.16,1.26c-2.98,3.73-8.94,4.72-13.43,2.97c-6.25-2.13-8.43-10.05-6.11-15.89
			c2.08-5.87,9.17-8.58,14.75-6.33c3.83,1.55,5.68,5.25,6.13,9.16c0.11,0.93,0.11,2.07,0.1,2.85
			C153.54,34.75,153.13,35.15,152.62,35.15z M148.2,31.12c0.27-7.52-10.72-6.91-11.09,0H148.2z"/>
	</g>
	<g>
		<path class="st4" d="M27.77,24.61c2.29,0.74,4.74-0.51,5.49-2.8c0.74-2.29-0.51-4.74-2.8-5.49c-2.29-0.74-4.74,0.51-5.49,2.8
			C24.24,21.42,25.49,23.87,27.77,24.61z"/>
		<path class="st4" d="M52.73,14.1C47.77,5.56,38.52,0.07,28.27,0C19.28-0.06,10.65,4.33,5.4,11.63c-5.99,8.34-7,19.07-2.99,28.13
			c2.89,6.54,8.15,11.72,14.65,14.53c0.78,0.34,1.54-0.51,1.14-1.26c-0.91-1.68-1.66-3.45-2.23-5.28c-0.25-0.79-0.73-1.48-1.38-2
			c-2.83-2.22-5.11-5.1-6.59-8.46C5.4,31.44,5.44,24.98,8.1,19.1C12.36,9.65,22.53,4.47,32.68,6.57
			c7.18,1.49,12.97,6.14,15.97,12.95c1.6,3.65,2.19,7.71,1.65,11.65C49,40.51,42.38,47.71,33.55,49.88
			c-0.69,0.17-1.39-0.1-1.75-0.68c-1.91-3.1-3.36-10.24-2.92-12.57c0.04-0.19,0.16-0.34,0.33-0.43c1.84-0.94,4.85-1.36,9.24-1.31
			c0.36,0,0.72-0.11,0.98-0.36c1.26-1.21,2.13-2.79,2.45-4.53c0.11-0.57-0.32-1.11-0.9-1.14c-7.7-0.34-12.44,0.44-15.66,2.55
			c-5.63,3.69-0.61,17.91,1.28,20.98c1.42,2.3,3.9,3.63,6.53,3.63c0.62,0,1.25-0.07,1.88-0.23c9.59-2.36,17.13-9.36,20.18-18.74
			C57.67,29.42,56.77,21.05,52.73,14.1z"/>
	</g>
</g>
</svg>
