<?xml version="1.0" encoding="utf-8"?>
<!-- Generator: Adobe Illustrator 26.0.3, SVG Export Plug-In . SVG Version: 6.00 Build 0)  -->
<svg version="1.1" id="Layer_1" xmlns="http://www.w3.org/2000/svg" xmlns:xlink="http://www.w3.org/1999/xlink" x="0px" y="0px"
	 viewBox="0 0 308 46" style="enable-background:new 0 0 308 46;" xml:space="preserve">
<style type="text/css">
	.st0{enable-background:new    ;}
	.st1{fill:#15BBEE;}
	.st2{fill:#02509E;}
</style>
<g id="image0" class="st0">
	<polygon class="st1" points="110.2,10.7 4.8,10.7 3.7,14.6 109.1,14.6 110.2,10.7 	"/>
	<polygon class="st2" points="7.9,21.8 107.1,21.8 108.2,17.9 9.1,17.9 7.9,21.8 	"/>
	<polygon class="st1" points="0,28.6 105.3,28.6 106.4,24.6 1,24.6 0,28.6 	"/>
	<polygon class="st2" points="140.1,10.7 126.5,10.7 125.1,15.9 129.7,15.9 128.6,20.4 122.9,20.4 126.3,7.3 140.8,7.3 142.6,0.2 
		119.6,0.2 112,28.6 135.1,28.6 140.1,10.7 	"/>
	<path class="st2" d="M148.4,16.5h2.4l-1.8,6.1h-2.4L148.4,16.5L148.4,16.5z M137.2,28.7h17.9l4.5-18h-17.4L137.2,28.7L137.2,28.7z"
		/>
	<polygon class="st2" points="152.4,0.2 144.8,0.2 142.9,7.3 150.4,7.3 152.4,0.2 	"/>
	<polygon class="st2" points="161.9,0.2 154.6,0.2 152.7,7.3 160.2,7.3 161.9,0.2 	"/>
	<polygon class="st2" points="172.2,0.2 164.3,0.2 157.3,28.6 165.3,28.6 172.2,0.2 	"/>
	<polygon class="st2" points="174.9,28.6 180.7,28.6 182.3,22.3 177.1,22.3 178.3,17 183.4,17 185,10.7 179.9,10.7 182.4,0.2 
		174.5,0.2 167.5,28.6 174.9,28.6 174.9,28.6 	"/>
	<polygon class="st2" points="296.3,0.2 288.4,0.2 281.4,28.6 288.7,28.6 288.7,28.6 294.6,28.6 296.1,22.3 290.9,22.3 292.2,17 
		297.3,17 298.8,10.7 293.7,10.7 296.3,0.2 	"/>
	<path class="st2" d="M193.3,15.8h6.4l-0.4,1.8l-6.6,0L193.3,15.8L193.3,15.8z M201.2,28.6l1.5-5.3h-11.5l0.6-2.2h11.4l2.8-10.4
		h-19.1l-4.4,18H201.2L201.2,28.6z"/>
	<polygon class="st2" points="207.7,10.7 203.1,28.6 211.3,28.6 214.7,16.7 216.2,16.7 213,28.6 221.3,28.6 226,10.7 207.7,10.7 	
		"/>
	<path class="st2" d="M234.3,22.9h-2.7l1.7-6.3h2.6L234.3,22.9L234.3,22.9z M244.7,10.7H235l2.8-10.5h-7.1l-7.4,28.5h16.9
		L244.7,10.7L244.7,10.7z"/>
	<path class="st2" d="M252.7,16.7h2.7l-1.9,6.7h-2.6L252.7,16.7L252.7,16.7z M259.6,28.6l4.7-18h-17.8l-4.8,18H259.6L259.6,28.6z"/>
	<path class="st2" d="M273.1,23.4h-2.6l1.8-6.7h2.7L273.1,23.4L273.1,23.4z M283.9,10.7l2.6-10.5h-7.6l-2.6,10.5h-10.2l-4.8,18h18
		L283.9,10.7L283.9,10.7z"/>
	<path class="st2" d="M303.8,4h-0.9V2.6h0.8c0.4,0,0.6,0,0.7,0.1c0.1,0.1,0.2,0.1,0.3,0.2c0.1,0.1,0.1,0.2,0.1,0.3
		c0,0.2-0.1,0.4-0.2,0.5C304.5,3.9,304.2,4,303.8,4L303.8,4z M304.7,4.7c-0.1-0.1-0.2-0.2-0.4-0.2c0.4,0,0.7-0.2,0.9-0.4
		c0.2-0.2,0.3-0.5,0.3-0.8c0-0.2-0.1-0.4-0.2-0.6c-0.1-0.2-0.3-0.3-0.5-0.4c-0.2-0.1-0.6-0.1-1.1-0.1h-1.5v4.4h0.7V4.6h0.4
		c0.2,0,0.4,0,0.6,0.1c0.2,0.1,0.4,0.5,0.7,1l0.4,0.7h0.8l-0.5-0.9C305.1,5.2,304.9,4.9,304.7,4.7L304.7,4.7z"/>
	<path class="st2" d="M306.9,5.9c-0.3,0.5-0.7,1-1.2,1.3c-0.5,0.3-1.1,0.4-1.7,0.4c-0.6,0-1.1-0.1-1.7-0.4c-0.5-0.3-1-0.7-1.3-1.3
		c-0.3-0.5-0.4-1.1-0.4-1.7c0-0.6,0.2-1.2,0.5-1.7c0.3-0.5,0.7-1,1.3-1.3c0.5-0.3,1.1-0.4,1.7-0.4c0.6,0,1.1,0.1,1.7,0.4
		c0.5,0.3,1,0.7,1.3,1.3c0.3,0.5,0.5,1.1,0.5,1.7C307.4,4.8,307.2,5.3,306.9,5.9L306.9,5.9z M307.5,2.1c-0.4-0.6-0.9-1.1-1.5-1.5
		c-0.6-0.3-1.3-0.5-2-0.5c-0.7,0-1.3,0.2-2,0.5c-0.6,0.3-1.2,0.8-1.5,1.5c-0.4,0.6-0.5,1.3-0.5,2c0,0.7,0.2,1.4,0.5,2
		c0.4,0.6,0.9,1.1,1.5,1.5c0.6,0.4,1.3,0.5,2,0.5c0.7,0,1.4-0.2,2-0.5c0.6-0.4,1.1-0.9,1.5-1.5c0.4-0.6,0.5-1.3,0.5-2
		C308,3.5,307.8,2.8,307.5,2.1L307.5,2.1z"/>
	<polygon class="st1" points="108.3,45.7 110.1,45.7 111.9,37.1 110.1,37.1 108.3,45.7 	"/>
	<path class="st1" d="M118.3,39.2c-0.5,0-1,0.1-1.4,0.4c-0.2,0.1-0.5,0.4-0.8,0.7l0.2-0.9h-1.6l-1.3,6.3h1.7l0.7-3.4
		c0.1-0.4,0.2-0.7,0.4-1c0.3-0.5,0.7-0.7,1.3-0.7c0.5,0,0.7,0.2,0.8,0.5c0.1,0.2,0,0.4,0,0.8l-0.8,3.9h1.7l0.9-4.3
		c0.2-0.8,0.1-1.4-0.3-1.7C119.5,39.3,119,39.2,118.3,39.2L118.3,39.2z"/>
	<path class="st1" d="M127.4,39.2c-0.5,0-1,0.1-1.4,0.4c-0.2,0.1-0.5,0.4-0.8,0.7l0.2-0.9h-1.6l-1.3,6.3h1.7l0.7-3.4
		c0.1-0.4,0.2-0.7,0.4-1c0.3-0.5,0.7-0.7,1.3-0.7c0.5,0,0.7,0.2,0.8,0.5c0.1,0.2,0,0.4,0,0.8l-0.8,3.9h1.7l0.9-4.3
		c0.2-0.8,0.1-1.4-0.3-1.7C128.6,39.3,128.1,39.2,127.4,39.2L127.4,39.2z"/>
	<path class="st1" d="M136.6,42.5c-0.1,0.6-0.4,1.1-0.7,1.5c-0.3,0.3-0.7,0.5-1.2,0.5c-0.5,0-0.8-0.2-1-0.5
		c-0.2-0.3-0.2-0.8-0.1-1.5c0.1-0.6,0.4-1.1,0.7-1.5c0.3-0.3,0.7-0.5,1.2-0.5c0.5,0,0.8,0.2,1,0.5C136.7,41.4,136.7,41.9,136.6,42.5
		L136.6,42.5z M135.8,39.1c-1.1,0-2,0.3-2.7,1c-0.7,0.7-1.1,1.5-1.3,2.4c-0.2,0.9-0.1,1.7,0.3,2.4c0.4,0.7,1.1,1,2.2,1
		c1.1,0,2-0.3,2.7-1c0.7-0.7,1.1-1.5,1.3-2.4c0.2-0.9,0.1-1.7-0.3-2.4C137.6,39.4,136.9,39.1,135.8,39.1L135.8,39.1z"/>
	<polygon class="st1" points="143.6,44 143.2,39.3 141.4,39.3 142.3,45.7 144.1,45.7 147.7,39.3 145.9,39.3 143.6,44 	"/>
	<path class="st1" d="M153.1,43.2c-0.1,0.6-0.4,0.9-0.7,1.1c-0.3,0.2-0.7,0.3-1.1,0.3c-0.2,0-0.4-0.1-0.5-0.2
		c-0.1-0.1-0.2-0.3-0.1-0.6c0.1-0.3,0.2-0.6,0.5-0.7c0.2-0.1,0.4-0.2,0.8-0.2l0.4-0.1c0.2,0,0.3-0.1,0.5-0.1c0.1,0,0.2-0.1,0.3-0.2
		L153.1,43.2L153.1,43.2z M154.7,39.6c-0.5-0.3-1.1-0.4-1.8-0.4c-1.1,0-1.9,0.3-2.4,0.8c-0.3,0.4-0.6,0.8-0.8,1.4h1.6
		c0.1-0.2,0.2-0.4,0.4-0.6c0.2-0.2,0.5-0.3,0.9-0.3c0.3,0,0.6,0,0.8,0.1c0.2,0.1,0.2,0.3,0.2,0.5c0,0.2-0.2,0.4-0.5,0.5
		c-0.1,0.1-0.4,0.1-0.7,0.1l-0.6,0.1c-0.7,0.1-1.2,0.2-1.5,0.4c-0.7,0.3-1.1,0.9-1.3,1.7c-0.1,0.6,0,1.1,0.3,1.4
		c0.3,0.3,0.7,0.5,1.3,0.5c0.5,0,0.9-0.1,1.3-0.3c0.3-0.2,0.6-0.4,0.9-0.6c0,0.1,0,0.3,0,0.4c0,0.1,0,0.2,0,0.4h1.8l0-0.2
		c-0.1-0.1-0.2-0.1-0.2-0.2c0-0.1,0-0.2,0-0.4c0.1-0.3,0.1-0.5,0.1-0.7l0.6-2.9C155.3,40.4,155.2,39.8,154.7,39.6L154.7,39.6z"/>
	<path class="st1" d="M161.1,37.6h-1.6l-0.4,1.8h-0.9l-0.3,1.2h0.9l-0.8,3.9c-0.1,0.4-0.1,0.7,0.1,0.9c0.2,0.3,0.7,0.4,1.5,0.4
		l0.8,0l0.3-1.2c-0.1,0-0.1,0-0.2,0c-0.1,0-0.1,0-0.2,0c-0.3,0-0.5,0-0.6-0.1c-0.1-0.1-0.1-0.2,0-0.5l0.7-3.4h1l0.3-1.2h-1
		L161.1,37.6L161.1,37.6z"/>
	<polygon class="st1" points="164.8,38.6 166.5,38.6 166.8,37 165.1,37 164.8,38.6 	"/>
	<polygon class="st1" points="163.3,45.7 164.9,45.7 166.3,39.3 164.6,39.3 163.3,45.7 	"/>
	<path class="st1" d="M173.4,42.5c-0.1,0.6-0.4,1.1-0.7,1.5c-0.3,0.3-0.7,0.5-1.2,0.5c-0.5,0-0.8-0.2-1-0.5
		c-0.2-0.3-0.2-0.8-0.1-1.5c0.1-0.6,0.4-1.1,0.7-1.5c0.3-0.3,0.7-0.5,1.2-0.5c0.5,0,0.8,0.2,1,0.5C173.5,41.4,173.5,41.9,173.4,42.5
		L173.4,42.5z M172.6,39.1c-1.1,0-2,0.3-2.7,1c-0.7,0.7-1.1,1.5-1.3,2.4c-0.2,0.9-0.1,1.7,0.3,2.4c0.4,0.7,1.1,1,2.2,1
		c1.1,0,2-0.3,2.7-1c0.7-0.7,1.1-1.5,1.3-2.4c0.2-0.9,0.1-1.7-0.3-2.4C174.4,39.4,173.7,39.1,172.6,39.1L172.6,39.1z"/>
	<path class="st1" d="M182.3,39.2c-0.5,0-1,0.1-1.4,0.4c-0.2,0.1-0.5,0.4-0.8,0.7l0.2-0.9h-1.6l-1.3,6.3h1.7l0.7-3.4
		c0.1-0.4,0.2-0.7,0.4-1c0.3-0.5,0.7-0.7,1.3-0.7c0.5,0,0.7,0.2,0.8,0.5c0.1,0.2,0,0.4,0,0.8l-0.8,3.9h1.7l0.9-4.3
		c0.2-0.8,0.1-1.4-0.3-1.7C183.5,39.3,183,39.2,182.3,39.2L182.3,39.2z"/>
	<path class="st1" d="M195.6,43.2c-0.1,0.6-0.4,0.9-0.7,1.1c-0.3,0.2-0.7,0.3-1.1,0.3c-0.2,0-0.4-0.1-0.5-0.2
		c-0.1-0.1-0.2-0.3-0.1-0.6c0.1-0.3,0.2-0.6,0.5-0.7c0.2-0.1,0.4-0.2,0.8-0.2l0.4-0.1c0.2,0,0.3-0.1,0.5-0.1c0.1,0,0.2-0.1,0.3-0.2
		L195.6,43.2L195.6,43.2z M197.2,39.6c-0.5-0.3-1.1-0.4-1.8-0.4c-1.1,0-1.9,0.3-2.4,0.8c-0.3,0.4-0.6,0.8-0.8,1.4h1.6
		c0.1-0.2,0.2-0.4,0.4-0.6c0.2-0.2,0.5-0.3,0.9-0.3c0.3,0,0.6,0,0.8,0.1c0.2,0.1,0.2,0.3,0.2,0.5c0,0.2-0.2,0.4-0.5,0.5
		c-0.1,0.1-0.4,0.1-0.7,0.1l-0.6,0.1c-0.7,0.1-1.2,0.2-1.5,0.4c-0.7,0.3-1.1,0.9-1.3,1.7c-0.1,0.6,0,1.1,0.3,1.4
		c0.3,0.3,0.7,0.5,1.3,0.5c0.5,0,0.9-0.1,1.3-0.3c0.3-0.2,0.6-0.4,0.9-0.6c0,0.1,0,0.3,0,0.4c0,0.1,0,0.2,0,0.4h1.8l0-0.2
		c-0.1-0.1-0.2-0.1-0.2-0.2c0-0.1,0-0.2,0-0.4c0.1-0.3,0.1-0.5,0.1-0.7l0.6-2.9C197.9,40.4,197.7,39.8,197.2,39.6L197.2,39.6z"/>
	<path class="st1" d="M204.9,39.2c-0.5,0-1,0.1-1.4,0.4c-0.2,0.1-0.5,0.4-0.8,0.7l0.2-0.9h-1.6l-1.3,6.3h1.7l0.7-3.4
		c0.1-0.4,0.2-0.7,0.4-1c0.3-0.5,0.7-0.7,1.3-0.7c0.5,0,0.7,0.2,0.8,0.5c0.1,0.2,0,0.4,0,0.8l-0.8,3.9h1.7l0.9-4.3
		c0.2-0.8,0.1-1.4-0.3-1.7C206.1,39.3,205.6,39.2,204.9,39.2L204.9,39.2z"/>
	<path class="st1" d="M213.9,42.6c-0.1,0.6-0.3,1-0.7,1.4c-0.3,0.3-0.7,0.5-1.2,0.5c-0.5,0-0.8-0.2-0.9-0.5c-0.2-0.4-0.2-0.8,0-1.4
		c0.1-0.5,0.3-1,0.6-1.4c0.3-0.4,0.7-0.6,1.2-0.6c0.3,0,0.6,0.1,0.8,0.3C214,41.2,214,41.8,213.9,42.6L213.9,42.6z M214.3,40.1
		c-0.1-0.3-0.3-0.5-0.6-0.7c-0.3-0.2-0.6-0.3-1-0.3c-0.8,0-1.6,0.3-2.2,0.9c-0.6,0.6-1.1,1.5-1.3,2.6c-0.2,0.9-0.1,1.7,0.3,2.3
		c0.4,0.6,0.9,0.9,1.7,0.9c0.5,0,0.8-0.1,1.2-0.3c0.3-0.2,0.7-0.4,1-0.8l-0.2,0.9h1.6l1.8-8.6H215L214.3,40.1L214.3,40.1z"/>
	<path class="st1" d="M229.5,39.8c-0.1,0.4-0.3,0.8-0.6,1c-0.3,0.2-0.6,0.3-1.1,0.3h-1.7l0.5-2.5h1.7c0.4,0,0.7,0.1,0.9,0.3
		C229.5,39,229.6,39.4,229.5,39.8L229.5,39.8z M229,37.1h-3.7l-1.8,8.6h1.8l0.7-3.1h1.8c1,0,1.7-0.2,2.3-0.6c0.6-0.4,1-1.1,1.2-2.1
		c0.2-0.9,0.1-1.6-0.3-2.1C230.5,37.3,229.8,37.1,229,37.1L229,37.1z"/>
	<path class="st1" d="M237.8,39.2c-0.5,0-0.9,0.1-1.3,0.4c-0.2,0.2-0.5,0.4-0.9,0.9l0.2-1.1h-1.6l-1.3,6.3h1.7l0.6-3
		c0.1-0.5,0.3-0.9,0.4-1.1c0.3-0.4,0.8-0.7,1.5-0.7c0.1,0,0.1,0,0.2,0c0.1,0,0.2,0,0.3,0l0.4-1.7C238,39.2,237.9,39.2,237.8,39.2
		C237.9,39.2,237.9,39.2,237.8,39.2L237.8,39.2z"/>
	<path class="st1" d="M244,41.8h-2.6c0.1-0.4,0.3-0.7,0.6-1c0.3-0.2,0.6-0.4,1-0.4c0.4,0,0.6,0.1,0.8,0.3
		C244,41.1,244.1,41.4,244,41.8L244,41.8z M244.7,39.4c-0.4-0.2-0.8-0.3-1.4-0.3c-0.9,0-1.7,0.3-2.4,0.9c-0.7,0.6-1.1,1.4-1.4,2.5
		c-0.2,1.2-0.1,2,0.4,2.5c0.5,0.5,1.2,0.8,2,0.8c1,0,1.8-0.3,2.5-0.9c0.4-0.4,0.7-0.8,0.8-1.1h-1.7c-0.1,0.2-0.3,0.3-0.4,0.4
		c-0.3,0.2-0.6,0.3-0.9,0.3c-0.3,0-0.6-0.1-0.8-0.2c-0.3-0.3-0.4-0.7-0.3-1.3h4.3c0.1-0.5,0.2-1,0.2-1.3c0-0.5,0-0.9-0.2-1.3
		C245.3,39.9,245.1,39.6,244.7,39.4L244.7,39.4z"/>
	<path class="st1" d="M251.9,39.2c-0.9,0-1.7,0.3-2.4,0.9c-0.7,0.6-1.1,1.5-1.3,2.5c-0.2,1-0.1,1.8,0.2,2.4c0.4,0.6,1,0.9,2.1,0.9
		c1,0,1.9-0.4,2.5-1.1c0.4-0.5,0.7-0.9,0.9-1.4h-1.7c-0.1,0.3-0.3,0.6-0.5,0.8c-0.2,0.2-0.5,0.3-0.9,0.3c-0.5,0-0.9-0.3-0.9-0.8
		c0-0.3,0-0.7,0.1-1.1c0.1-0.5,0.2-0.9,0.4-1.2c0.3-0.6,0.8-0.8,1.3-0.8c0.4,0,0.7,0.1,0.8,0.4c0.1,0.2,0.1,0.4,0.1,0.6h1.7
		c0.1-0.9-0.1-1.5-0.5-1.9C253.3,39.3,252.7,39.2,251.9,39.2L251.9,39.2z"/>
	<polygon class="st1" points="257.8,38.6 259.5,38.6 259.8,37 258.1,37 257.8,38.6 	"/>
	<polygon class="st1" points="256.3,45.7 258,45.7 259.3,39.3 257.6,39.3 256.3,45.7 	"/>
	<path class="st1" d="M265.2,39.1c-0.8,0-1.5,0.2-2.1,0.6c-0.5,0.4-0.9,0.9-1,1.5c-0.1,0.5,0,0.9,0.2,1.1c0.2,0.3,0.7,0.5,1.4,0.7
		c0.9,0.2,1.5,0.4,1.6,0.5c0.1,0.1,0.2,0.2,0.1,0.4c0,0.2-0.2,0.3-0.4,0.4c-0.2,0.1-0.5,0.1-0.8,0.1c-0.6,0-0.9-0.1-1.1-0.3
		c-0.1-0.1-0.1-0.3-0.1-0.6h-1.7c-0.1,0.7,0,1.2,0.4,1.6c0.4,0.4,1.1,0.6,2.1,0.6c1,0,1.7-0.2,2.3-0.6c0.6-0.4,0.9-0.9,1-1.5
		c0.1-0.5,0-0.9-0.2-1.2c-0.3-0.3-0.7-0.5-1.3-0.7c-0.9-0.2-1.5-0.4-1.6-0.5c-0.1-0.1-0.2-0.2-0.2-0.4c0-0.2,0.1-0.3,0.3-0.4
		c0.2-0.1,0.4-0.2,0.8-0.2c0.4,0,0.7,0.1,0.9,0.3c0.1,0.1,0.1,0.3,0.1,0.5h1.7c0.1-0.8-0.1-1.3-0.5-1.6
		C266.6,39.3,266,39.1,265.2,39.1L265.2,39.1z"/>
	<polygon class="st1" points="271.3,38.6 273,38.6 273.3,37 271.6,37 271.3,38.6 	"/>
	<polygon class="st1" points="269.8,45.7 271.5,45.7 272.8,39.3 271.2,39.3 269.8,45.7 	"/>
	<path class="st1" d="M279.9,42.5c-0.1,0.6-0.4,1.1-0.7,1.5c-0.3,0.3-0.7,0.5-1.2,0.5c-0.5,0-0.8-0.2-1-0.5
		c-0.2-0.3-0.2-0.8-0.1-1.5c0.1-0.6,0.4-1.1,0.7-1.5c0.3-0.3,0.7-0.5,1.2-0.5c0.5,0,0.8,0.2,1,0.5C280,41.4,280,41.9,279.9,42.5
		L279.9,42.5z M279.1,39.1c-1.1,0-2,0.3-2.7,1c-0.7,0.7-1.1,1.5-1.3,2.4c-0.2,0.9-0.1,1.7,0.3,2.4c0.4,0.7,1.1,1,2.2,1
		c1.1,0,2-0.3,2.7-1c0.7-0.7,1.1-1.5,1.3-2.4c0.2-0.9,0.1-1.7-0.3-2.4C281,39.4,280.2,39.1,279.1,39.1L279.1,39.1z"/>
	<path class="st1" d="M288.9,39.2c-0.5,0-1,0.1-1.4,0.4c-0.2,0.1-0.5,0.4-0.8,0.7l0.2-0.9h-1.6l-1.3,6.3h1.7l0.7-3.4
		c0.1-0.4,0.2-0.7,0.4-1c0.3-0.5,0.7-0.7,1.3-0.7c0.5,0,0.7,0.2,0.8,0.5c0.1,0.2,0,0.4,0,0.8l-0.8,3.9h1.7l0.9-4.3
		c0.2-0.8,0.1-1.4-0.3-1.7C290,39.3,289.5,39.2,288.9,39.2L288.9,39.2z"/>
	<polygon class="st1" points="293,45.7 294.8,45.7 295.1,43.9 293.4,43.9 293,45.7 	"/>
</g>
</svg>
